<svg id="svg" version="1.1" xmlns="http://www.w3.org/2000/svg" xmlns:xlink="http://www.w3.org/1999/xlink" width="400" height="400" viewBox="0, 0, 400,400"><g id="svgg"><path id="path0" d="M199.198 19.782 C 170.127 26.089,142.472 38.419,121.178 54.568 C 112.441 61.194,108.611 63.080,108.138 60.990 C 106.925 55.635,102.932 57.864,90.006 71.112 C 67.661 94.013,49.912 130.442,46.356 160.701 L 45.025 172.021 85.603 172.021 C 110.419 172.021,126.678 172.826,127.461 174.093 C 128.304 175.457,107.448 176.166,66.444 176.166 C 32.179 176.166,4.145 176.582,4.145 177.091 C 4.145 177.600,7.528 183.788,11.662 190.842 C 36.686 233.539,48.175 271.712,51.146 322.038 L 52.478 344.593 67.384 343.333 C 75.582 342.640,83.745 341.515,85.523 340.833 C 89.135 339.447,90.847 344.202,89.476 351.813 C 88.877 355.137,87.192 356.477,83.609 356.477 C 78.669 356.477,78.593 356.753,79.187 372.539 L 79.793 388.601 104.663 390.463 C 176.415 395.834,273.901 377.909,326.425 349.687 L 338.860 343.005 339.459 324.870 C 340.009 308.208,338.417 302.818,334.715 308.808 C 328.101 319.510,327.912 275.624,334.506 260.132 C 338.378 251.034,345.835 242.070,348.277 243.579 C 350.334 244.851,363.897 223.644,363.138 220.341 C 362.815 218.934,365.445 212.050,368.981 205.044 C 422.148 99.720,324.063 -7.307,199.198 19.782 M279.536 26.989 C 358.050 45.811,397.448 122.208,366.619 195.855 C 357.692 217.182,354.585 220.573,345.530 218.875 L 338.142 217.488 344.228 204.065 C 376.482 132.932,340.439 60.343,264.888 44.274 C 218.590 34.427,159.464 49.298,125.152 79.419 L 116.133 87.336 112.653 80.037 C 108.260 70.826,108.912 69.982,132.755 54.034 C 174.907 25.839,231.355 15.438,279.536 26.989 M265.524 50.647 C 335.334 65.444,369.012 134.505,338.688 200.677 C 332.395 214.409,331.277 215.723,327.004 214.409 C 320.368 212.369,319.739 211.369,323.696 209.155 C 332.719 204.106,332.523 185.580,323.387 179.874 C 319.781 177.622,319.346 175.842,320.423 167.727 C 330.465 92.025,229.484 47.643,155.702 95.330 C 141.437 104.550,137.484 104.676,127.338 96.231 L 121.244 91.160 130.570 82.870 C 162.201 54.754,219.903 40.976,265.524 50.647 M104.657 76.653 C 109.101 96.889,133.336 111.032,160.646 109.328 L 178.238 108.231 178.238 120.714 C 178.238 145.001,185.536 157.134,207.835 169.923 C 218.857 176.244,216.694 178.499,204.597 173.299 C 185.438 165.065,172.021 145.563,172.021 125.952 L 172.021 114.353 155.893 114.424 C 136.323 114.509,121.359 108.883,111.603 97.771 C 104.153 89.286,96.577 73.489,98.481 70.409 C 100.479 67.176,103.173 69.901,104.657 76.653 M111.174 105.525 C 122.283 115.303,137.462 120.818,153.878 121.041 L 165.803 121.203 165.803 129.625 C 165.803 141.231,174.539 157.802,185.958 167.853 L 195.402 176.166 175.761 176.166 L 156.120 176.166 143.208 165.803 L 130.295 155.440 92.091 155.440 C 61.850 155.440,53.886 154.871,53.886 152.708 C 53.886 141.054,70.201 105.300,84.234 86.200 L 91.709 76.027 96.760 86.655 C 99.539 92.501,106.025 100.992,111.174 105.525 M245.733 83.075 C 288.825 90.946,321.144 131.507,314.126 168.912 L 312.707 176.480 272.934 175.805 C 205.849 174.666,182.512 158.734,184.962 115.748 C 185.909 99.148,185.661 97.308,182.648 98.546 C 160.475 107.653,150.309 104.630,169.948 94.770 C 194.887 82.249,219.997 78.374,245.733 83.075 M137.824 168.959 C 147.314 177.138,143.749 178.806,133.495 170.984 C 126.828 165.900,126.005 165.803,89.257 165.803 C 65.676 165.803,51.813 165.036,51.813 163.731 C 51.813 162.420,66.097 161.687,90.674 161.736 L 129.534 161.814 137.824 168.959 M304.663 186.528 C 297.396 193.795,301.949 205.181,312.121 205.181 C 321.550 205.181,326.014 193.371,319.171 186.528 C 316.891 184.249,315.937 182.383,317.051 182.383 C 322.124 182.383,325.959 192.583,323.300 199.002 C 320.170 206.559,319.361 206.741,282.902 208.050 C 217.200 210.409,186.010 229.666,188.907 266.084 L 189.643 275.338 183.422 273.938 C 158.273 268.280,148.596 272.787,137.475 295.337 C 124.142 322.371,97.734 337.573,63.731 337.788 C 54.856 337.844,57.031 334.208,66.839 332.590 C 102.237 326.750,119.152 315.844,132.446 290.290 C 144.480 267.160,153.308 263.048,176.878 269.593 C 186.708 272.322,186.721 272.308,183.989 262.074 C 175.107 228.796,207.914 207.999,275.648 203.968 L 299.482 202.550 299.536 193.517 L 299.591 184.484 156.531 183.937 L 13.472 183.391 161.140 182.887 L 308.808 182.383 304.663 186.528 M314.951 191.619 C 317.799 195.051,316.183 198.964,311.917 198.964 C 308.188 198.964,306.065 195.411,307.523 191.611 C 308.996 187.774,311.762 187.777,314.951 191.619 M292.228 193.498 C 292.228 195.591,286.991 196.698,272.021 197.770 C 209.477 202.249,177.883 220.288,177.371 251.813 L 177.202 262.176 161.313 262.176 C 142.595 262.176,137.282 265.633,129.463 282.902 C 122.364 298.580,112.919 310.285,103.487 315.097 C 95.756 319.041,66.954 327.461,61.193 327.461 C 59.682 327.461,57.477 317.212,55.208 299.646 C 50.226 261.080,39.686 227.975,23.319 199.482 L 18.259 190.674 155.243 190.674 C 269.506 190.674,292.228 191.142,292.228 193.498 M43.523 213.538 C 43.523 217.818,49.587 230.052,51.708 230.052 C 54.446 230.052,54.429 229.237,51.485 219.411 C 49.353 212.293,43.523 207.993,43.523 213.538 M71.640 216.062 C 74.890 226.497,76.686 230.052,78.705 230.052 C 81.447 230.052,81.398 226.084,78.554 217.926 C 75.897 210.306,69.292 208.526,71.640 216.062 M97.409 212.393 C 97.409 215.190,104.285 230.052,105.579 230.052 C 109.059 230.052,109.226 227.253,106.204 219.561 C 103.646 213.047,97.409 207.965,97.409 212.393 M127.782 220.725 C 131.049 230.314,138.537 234.772,135.614 225.389 C 132.173 214.343,130.495 211.399,127.638 211.399 C 124.995 211.399,125.014 212.602,127.782 220.725 M153.368 214.199 C 153.368 220.101,158.048 230.052,160.825 230.052 C 164.515 230.052,164.476 228.197,160.594 218.906 C 157.490 211.477,153.368 208.791,153.368 214.199 M322.280 218.592 C 330.259 221.398,340.708 224.291,345.499 225.021 C 354.139 226.337,354.184 226.389,350.960 231.309 C 345.690 239.351,322.755 235.745,289.287 221.613 L 270.466 213.665 289.119 213.577 C 303.788 213.508,310.870 214.579,322.280 218.592 M274.207 221.881 C 292.568 229.683,292.925 230.034,290.068 237.486 C 288.795 240.807,285.569 254.852,282.900 268.699 C 277.854 294.874,268.017 321.253,271.078 300.402 C 272.961 287.572,254.505 278.064,246.162 287.565 C 238.010 296.848,240.835 308.780,252.209 313.104 C 255.158 314.225,257.155 315.557,256.647 316.064 C 252.597 320.115,187.753 328.560,143.216 330.838 L 115.447 332.259 124.901 323.544 C 130.540 318.346,137.811 308.188,142.918 298.371 C 155.053 275.045,167.269 272.024,197.394 284.898 C 200.760 286.337,200.795 285.939,197.912 279.039 C 187.277 253.587,199.677 232.032,230.714 222.015 C 255.153 214.127,255.954 214.124,274.207 221.881 M312.950 238.172 C 312.943 240.440,290.346 264.254,290.251 262.093 C 290.133 259.441,296.082 236.344,297.455 234.123 C 298.524 232.393,312.956 236.163,312.950 238.172 M332.218 241.341 L 338.012 242.613 321.965 261.376 C 307.401 278.404,305.764 279.721,304.249 275.625 C 303.331 273.143,300.748 270.633,298.509 270.047 C 294.990 269.127,296.293 266.936,308.149 253.846 C 315.690 245.520,322.886 239.014,324.142 239.388 C 325.398 239.762,329.032 240.641,332.218 241.341 M57.102 252.676 C 56.457 253.720,56.896 257.217,58.078 260.448 C 59.260 263.678,60.696 267.643,61.269 269.258 C 63.957 276.828,66.564 267.612,64.080 259.322 C 61.568 250.936,59.434 248.904,57.102 252.676 M84.022 252.713 C 82.044 255.915,89.169 271.354,92.105 270.227 C 94.189 269.427,94.047 267.272,91.430 259.995 C 88.131 250.821,86.303 249.024,84.022 252.713 M111.408 251.977 C 109.054 254.332,116.261 271.296,119.146 270.189 C 121.439 269.309,121.379 267.524,118.798 259.950 C 115.817 251.201,114.069 249.316,111.408 251.977 M323.751 291.797 L 322.852 315.201 311.167 321.072 C 299.810 326.779,275.773 335.919,265.285 338.518 C 261.214 339.527,263.544 336.191,276.154 322.953 C 284.981 313.686,299.436 297.463,308.275 286.900 C 317.114 276.338,324.415 267.854,324.498 268.045 C 324.582 268.237,324.246 278.925,323.751 291.797 M295.830 286.382 C 299.935 286.970,298.350 289.431,282.051 307.772 C 255.233 337.949,229.666 355.594,233.208 341.481 C 234.046 338.142,233.352 335.202,231.222 333.073 C 227.292 329.142,228.312 328.399,240.387 326.399 C 267.587 321.893,280.726 310.420,285.044 287.404 C 286.223 281.119,286.937 280.233,288.844 282.691 C 290.135 284.355,293.279 286.016,295.830 286.382 M333.679 328.159 L 333.679 339.219 316.295 347.833 C 265.733 372.887,176.265 388.756,109.326 384.543 L 84.974 383.011 84.974 373.233 L 84.974 363.456 129.016 363.416 C 200.691 363.351,279.668 346.397,325.389 321.260 C 329.378 319.067,332.876 317.233,333.161 317.185 C 333.446 317.138,333.679 322.076,333.679 328.159 M218.803 334.093 C 215.979 338.124,215.963 339.191,218.663 343.311 C 222.596 349.314,222.415 349.394,196.815 353.079 C 165.999 357.515,133.416 359.277,113.252 357.597 L 95.902 356.152 95.902 348.227 C 95.902 338.971,98.768 337.824,121.903 337.824 C 137.717 337.824,188.580 334.072,205.181 331.681 C 223.074 329.104,222.383 328.981,218.803 334.093 " stroke="none" fill="#e9ece503" fill-rule="evenodd"></path></g></svg>