 <svg version="1.0" xmlns="http://www.w3.org/2000/svg" viewBox="-400 300 900 900" preserveAspectRatio="xMidYMid meet">
<g transform="translate(0.000000,701.000000) scale(0.100000,-0.100000)" fill="#8c73431a" stroke="none">
<path d="M3339 6987 c-46 -63 -30 -179 37 -270 39 -52 44 -64 38 -96 -3 -20
-34 -79 -69 -131 -95 -146 -98 -153 -93 -234 3 -47 13 -86 28 -115 19 -37 21
-55 17 -105 -4 -39 -11 -64 -22 -72 -25 -18 -81 -143 -101 -223 -16 -70 -16
-75 3 -159 21 -95 20 -113 -21 -227 -31 -84 -36 -230 -11 -311 8 -27 15 -68
15 -92 0 -48 -33 -122 -55 -122 -8 0 -19 -8 -24 -18 -14 -25 -107 -52 -182
-52 -74 0 -144 28 -205 82 -96 84 -132 104 -294 162 -148 54 -212 94 -247 155
-37 63 -94 140 -131 174 -22 21 -51 33 -116 47 -158 35 -227 81 -296 200 -75
129 -154 186 -300 215 -149 29 -239 80 -266 151 -26 69 -44 53 -44 -41 0 -66
42 -133 115 -185 85 -59 143 -124 151 -167 31 -180 87 -266 213 -335 17 -9 44
-39 61 -65 16 -26 39 -59 50 -71 11 -13 20 -28 20 -34 0 -23 113 -166 175
-221 65 -59 114 -136 144 -229 24 -73 105 -182 182 -244 117 -95 137 -140 108
-249 -6 -22 -13 -53 -16 -70 -3 -16 -17 -46 -30 -66 l-24 -36 -92 -6 c-117 -8
-157 -20 -237 -67 -36 -21 -93 -46 -127 -56 l-61 -17 -79 29 c-64 24 -94 29
-165 29 l-87 0 -41 -40 -40 -39 -173 2 -172 3 -51 -30 c-29 -17 -61 -45 -73
-64 -44 -71 -151 -91 -264 -48 -16 6 -62 11 -103 11 l-74 0 -54 -49 c-70 -64
-83 -70 -169 -85 -97 -16 -100 -34 -12 -77 63 -31 67 -32 148 -24 146 14 194
12 220 -14 59 -54 170 -72 317 -51 l65 9 85 -46 c117 -62 180 -68 264 -24 82
44 108 41 201 -21 73 -50 82 -53 139 -53 34 0 82 7 109 15 61 19 115 5 217
-56 77 -46 122 -55 163 -32 48 25 110 6 179 -54 69 -62 96 -225 51 -313 -23
-43 -96 -114 -192 -184 -47 -35 -68 -59 -98 -115 -42 -80 -67 -137 -90 -211
-39 -128 -107 -205 -203 -230 -88 -23 -106 -48 -121 -166 -15 -120 -28 -144
-129 -234 -61 -54 -102 -100 -130 -147 -22 -37 -40 -72 -40 -78 0 -19 -42
-143 -61 -181 -19 -38 -132 -149 -152 -149 -8 0 -8 -3 0 -11 6 -6 38 -13 71
-16 86 -8 146 26 221 126 31 40 61 81 66 90 45 72 71 94 179 146 61 30 154 68
206 86 158 54 201 92 271 236 l40 83 92 44 c50 24 147 63 215 86 67 24 133 51
146 61 13 10 36 49 51 86 50 122 141 177 295 176 107 0 149 -14 194 -63 45
-50 60 -106 51 -190 -4 -36 -8 -110 -9 -166 l-1 -101 46 -51 c69 -77 80 -136
43 -235 -8 -20 -17 -75 -20 -121 -6 -76 -5 -88 20 -142 15 -33 40 -75 55 -94
64 -80 91 -181 57 -209 -24 -20 -39 -95 -31 -163 5 -45 19 -86 49 -143 38 -74
41 -87 46 -180 5 -82 10 -110 33 -157 16 -32 36 -99 46 -150 9 -50 22 -93 28
-95 6 -2 19 13 29 34 16 31 19 62 20 178 0 133 9 185 34 200 5 3 20 25 32 48
20 38 22 57 23 194 0 138 2 153 21 175 55 62 80 132 90 248 6 64 2 97 -25 216
l-33 141 71 123 c99 172 114 215 114 325 1 50 -3 126 -7 170 -8 72 -6 85 13
123 12 23 31 48 44 56 75 50 215 64 283 29 44 -23 104 -84 128 -130 16 -32 90
-104 126 -123 13 -7 63 -21 112 -31 48 -10 96 -23 106 -28 24 -13 73 -70 135
-155 49 -68 109 -121 207 -184 30 -20 64 -43 75 -52 11 -9 43 -25 70 -35 136
-49 225 -113 225 -160 0 -9 22 -38 49 -64 61 -59 153 -96 295 -117 192 -29
221 -36 264 -60 40 -24 62 -25 62 -3 0 26 -116 121 -243 200 -42 25 -53 40
-84 107 -59 131 -96 183 -162 229 -81 58 -105 92 -145 212 -39 117 -48 129
-121 170 -89 50 -113 93 -145 254 -14 72 -54 120 -124 151 -85 38 -120 91
-150 227 -3 15 -21 45 -39 67 -18 22 -49 64 -68 93 -30 47 -34 62 -33 114 1
63 12 93 63 163 l31 42 170 0 169 0 62 40 c33 22 72 51 85 65 32 35 88 34 160
-4 102 -55 175 -51 313 16 l74 36 136 -13 c107 -10 145 -10 181 0 55 15 112
43 129 64 17 20 101 21 156 1 52 -18 166 -19 210 -1 19 8 74 42 123 76 l89 62
56 -16 c30 -9 58 -16 61 -16 15 0 3 24 -34 64 -64 69 -154 85 -246 42 -44 -21
-57 -22 -112 -15 -79 11 -154 46 -228 107 l-57 47 -150 -3 c-158 -3 -190 3
-302 55 -62 28 -164 32 -210 6 -20 -11 -54 -17 -100 -17 -64 -1 -78 3 -160 44
l-89 44 -217 2 c-208 1 -219 2 -265 25 -38 19 -56 36 -81 81 -72 124 -39 252
102 392 72 70 101 119 135 220 14 45 58 112 92 142 12 11 56 40 95 63 40 24
85 55 100 70 16 15 57 52 91 81 79 68 99 102 152 265 24 73 50 137 61 145 10
8 38 30 62 47 62 47 93 109 121 251 13 68 34 140 48 164 28 52 86 86 157 95
28 3 51 9 51 13 0 4 -12 16 -27 25 -23 15 -43 17 -139 12 -154 -7 -217 -43
-353 -201 -66 -77 -78 -87 -134 -105 -34 -11 -90 -25 -124 -31 -66 -11 -137
-46 -169 -82 -11 -13 -26 -43 -33 -68 -39 -135 -89 -186 -230 -235 -139 -48
-253 -107 -299 -153 -21 -22 -47 -64 -61 -99 -27 -72 -66 -122 -125 -162 -132
-91 -364 -76 -433 28 -20 29 -23 47 -23 131 0 110 -12 155 -67 244 -33 53 -35
62 -29 111 3 29 13 65 21 81 8 16 15 38 15 49 0 48 -30 130 -79 215 -49 84
-52 95 -47 138 3 26 8 92 12 147 6 97 5 103 -25 176 -17 42 -43 87 -57 100
-62 58 -68 107 -23 206 30 66 31 72 26 175 -5 125 -6 126 -139 265 -58 60 -90
102 -94 122 -8 37 -14 38 -35 8z m170 -265 c17 -22 35 -51 41 -66 21 -55 7
-162 -30 -243 -12 -25 -20 -64 -20 -94 0 -44 6 -61 45 -118 90 -136 101 -190
81 -388 -10 -94 -8 -103 66 -231 55 -95 59 -127 28 -217 -33 -95 -24 -142 49
-254 l41 -64 0 -105 c0 -127 12 -157 83 -206 66 -45 118 -58 237 -59 186 -3
265 51 365 250 58 115 111 152 292 204 169 48 252 127 292 275 12 45 34 74 69
93 30 16 164 56 217 65 66 12 98 36 200 148 100 109 135 132 163 104 13 -13
13 -20 -1 -64 -9 -27 -19 -76 -23 -108 -14 -121 -68 -224 -136 -260 -62 -32
-104 -107 -139 -248 -12 -48 -34 -105 -48 -126 -38 -56 -174 -169 -258 -213
-85 -44 -161 -123 -188 -193 -44 -119 -88 -190 -170 -275 -95 -99 -109 -129
-110 -244 0 -66 5 -90 26 -135 36 -77 80 -124 141 -150 50 -21 60 -22 230 -15
200 8 203 7 346 -62 90 -43 97 -45 160 -40 37 3 89 15 116 27 58 26 106 22
170 -14 85 -50 131 -59 302 -60 l161 -1 56 -37 c31 -21 86 -54 123 -73 59 -31
74 -35 145 -35 86 0 98 -9 57 -47 -62 -56 -120 -65 -213 -33 -83 29 -163 27
-206 -5 -93 -68 -122 -74 -314 -60 -102 7 -115 5 -185 -18 -41 -14 -105 -31
-142 -38 -64 -12 -69 -11 -125 14 -72 32 -161 44 -194 27 -13 -7 -38 -25 -56
-39 -92 -76 -94 -76 -253 -74 -80 1 -159 -2 -177 -8 -39 -12 -97 -75 -122
-132 -58 -132 -57 -127 -40 -206 8 -40 21 -61 64 -105 65 -66 79 -91 97 -183
18 -87 52 -134 134 -183 72 -43 124 -95 124 -122 0 -12 7 -44 15 -72 8 -28 17
-63 20 -78 6 -33 85 -115 128 -133 55 -23 85 -65 111 -154 26 -90 63 -151 110
-183 85 -58 125 -110 209 -268 65 -125 64 -136 -15 -127 -120 14 -176 45 -224
127 -52 89 -96 124 -232 184 -198 88 -304 171 -408 317 -61 87 -113 120 -211
137 -109 19 -181 68 -258 177 -51 71 -99 107 -175 129 -73 22 -118 20 -193 -7
-90 -33 -142 -78 -167 -144 -23 -62 -25 -107 -9 -214 9 -54 9 -95 2 -145 -12
-76 -26 -109 -91 -205 -23 -35 -49 -86 -57 -113 -18 -60 -19 -149 -3 -179 6
-12 17 -49 24 -82 29 -134 8 -278 -55 -369 -33 -47 -34 -50 -42 -199 -8 -140
-10 -156 -38 -208 -16 -31 -35 -75 -41 -98 -12 -45 -37 -55 -44 -18 -3 12 -7
54 -9 92 -3 58 -11 83 -45 148 -38 72 -42 85 -42 152 0 51 6 90 20 125 36 90
22 147 -61 256 -72 93 -83 164 -49 294 36 139 24 222 -44 302 -50 57 -59 111
-40 229 9 52 13 105 11 119 -24 121 -63 177 -154 222 -62 30 -74 33 -163 32
-111 0 -152 -12 -236 -66 -52 -33 -65 -47 -83 -91 -33 -80 -46 -100 -80 -124
-35 -24 -148 -68 -197 -77 -51 -8 -197 -82 -228 -114 -15 -17 -45 -62 -65
-100 -65 -127 -131 -177 -306 -234 -33 -11 -84 -31 -113 -44 -29 -13 -55 -24
-58 -24 -20 0 -103 -72 -150 -130 -81 -101 -98 -94 -69 26 19 84 60 139 165
229 49 42 95 86 103 98 13 20 34 105 54 216 9 47 9 47 94 86 69 31 141 93 174
148 13 23 37 83 54 134 31 98 89 213 125 250 11 13 50 42 86 65 48 32 76 60
108 108 73 110 88 207 51 329 -18 61 -95 143 -161 171 -48 21 -58 22 -109 11
-85 -17 -98 -14 -171 34 -90 61 -154 75 -237 52 -71 -20 -133 -22 -164 -6 -12
7 -39 27 -59 45 -47 42 -108 59 -157 45 -190 -56 -234 -59 -283 -22 -62 46
-102 54 -228 47 -140 -8 -180 0 -252 50 -46 31 -79 44 -151 59 -33 7 -34 25
-4 60 29 35 93 43 165 22 81 -25 164 -31 208 -17 21 7 67 40 103 74 64 60 69
63 154 80 76 16 93 17 135 5 76 -22 156 -18 184 8 60 56 131 65 270 32 110
-26 174 -20 256 23 118 62 131 68 173 77 24 6 78 11 119 11 52 0 83 5 98 15
56 40 120 219 107 302 -13 85 -37 124 -130 202 l-87 74 -73 151 c-72 148 -76
153 -173 249 -61 59 -117 125 -142 168 -24 38 -47 72 -51 75 -5 3 -21 28 -34
55 -29 56 -88 118 -160 169 -54 38 -89 95 -100 165 -10 58 -44 135 -77 173
-49 57 -41 66 54 57 44 -3 90 -10 102 -15 33 -12 94 -77 117 -123 66 -132 156
-201 314 -242 119 -31 179 -70 206 -134 28 -64 96 -156 127 -172 15 -7 43 -24
62 -36 19 -12 82 -38 140 -58 126 -44 193 -79 281 -151 141 -113 307 -125 449
-34 91 58 118 163 85 336 -20 108 -14 174 29 291 30 83 33 151 10 214 -23 64
-11 147 32 234 19 38 41 76 49 85 48 53 60 182 25 272 -30 79 -26 133 13 195
17 28 49 79 70 112 47 75 59 148 33 211 -33 82 -7 87 53 12z"></path>
<path d="M3250 4626 c-277 -72 -522 -208 -648 -360 -126 -152 -200 -299 -248
-491 l-28 -110 12 -175 c15 -233 40 -347 102 -472 102 -206 247 -362 445 -480
147 -87 323 -150 508 -179 166 -27 193 -26 347 6 438 91 775 459 870 950 46
236 5 517 -105 708 -55 95 -56 97 -115 172 -124 160 -301 307 -445 370 -128
57 -226 76 -420 81 -167 4 -187 2 -275 -20z m515 -65 c126 -31 190 -58 286
-123 210 -140 389 -368 465 -590 111 -329 44 -714 -176 -1007 -106 -141 -232
-259 -340 -319 -258 -144 -499 -160 -821 -52 -199 66 -303 129 -455 272 -146
138 -257 318 -305 493 -30 111 -39 416 -15 519 34 145 117 313 224 454 70 92
99 117 215 186 148 89 341 158 513 186 94 14 317 4 409 -19z"></path>
<path d="M2950 4080 c-58 -8 -119 -35 -126 -55 -11 -28 4 -28 36 -1 29 23 40
26 114 26 101 0 137 -12 169 -54 29 -37 93 -61 138 -51 37 8 39 35 2 35 -30 0
-113 37 -113 50 0 5 -20 21 -43 35 -46 26 -85 30 -177 15z"></path>
<path d="M3880 4080 c-19 -5 -79 -16 -133 -26 -183 -32 -215 -83 -157 -253
l20 -60 -31 -78 c-27 -67 -30 -85 -24 -133 4 -30 16 -72 27 -93 11 -22 18 -40
16 -41 -2 -1 -27 -16 -55 -33 -46 -28 -59 -31 -102 -26 -27 3 -60 3 -73 0 -24
-6 -53 -51 -43 -67 2 -4 32 -2 65 5 59 12 60 12 66 -11 12 -46 28 -47 92 -7
33 21 74 46 91 55 22 12 31 24 31 43 0 14 -4 25 -10 25 -17 0 -70 118 -70 155
0 20 12 59 26 87 14 28 28 76 31 107 3 31 11 62 17 70 18 22 108 61 143 61 38
0 105 -24 147 -53 19 -13 51 -21 97 -25 77 -5 84 -14 42 -55 -54 -51 -138 -70
-200 -46 -28 11 -28 11 -5 22 49 23 8 107 -54 107 -44 0 -54 -10 -54 -54 0
-39 -3 -43 -32 -51 -51 -15 -43 -40 12 -37 25 2 68 -4 95 -12 129 -40 251 -9
292 74 12 25 29 52 37 61 28 28 1 38 -90 32 -80 -6 -84 -5 -129 25 -65 43
-107 55 -175 50 -43 -3 -72 -12 -109 -36 l-51 -31 -6 27 c-3 15 -10 41 -14 59
-9 36 -3 44 71 87 32 18 72 30 125 36 44 5 97 14 119 20 22 5 55 10 73 10 20
0 31 4 27 10 -7 12 -94 12 -145 0z"></path>
<path d="M2904 3886 c-23 -7 -66 -27 -97 -45 -40 -23 -67 -31 -103 -31 -45 -1
-47 -2 -30 -15 10 -8 39 -17 64 -21 35 -5 57 -18 100 -56 73 -67 121 -88 203
-88 70 0 145 23 133 41 -4 7 -41 8 -111 4 l-105 -7 26 25 c32 32 33 67 3 95
-43 40 -90 25 -105 -33 l-7 -25 -35 30 -35 30 25 19 c63 50 188 53 277 7 29
-14 54 -30 58 -36 8 -14 35 -13 35 1 0 19 -71 80 -115 100 -46 21 -122 23
-181 5z"></path>
<path d="M3226 3851 c-4 -6 4 -15 21 -22 15 -5 41 -17 57 -25 36 -18 46 -18
46 -1 0 36 -107 77 -124 48z"></path>
<path d="M3285 3105 c-22 -9 -60 -19 -84 -23 -56 -9 -63 -28 -17 -47 52 -22
83 -19 143 15 57 33 104 38 143 15 35 -20 74 -18 120 5 51 26 57 25 109 -10
48 -33 101 -39 121 -15 19 23 2 38 -37 30 -26 -5 -44 -1 -71 15 -31 19 -49 21
-142 20 -58 -1 -136 1 -175 4 -52 5 -80 2 -110 -9z"></path>
<path d="M3535 2885 c-19 -8 -36 -10 -47 -4 -23 12 -85 11 -93 -1 -11 -18 35
-70 83 -94 74 -37 122 -50 135 -37 33 33 87 -14 87 -75 0 -22 -5 -45 -12 -52
-9 -9 -9 -15 0 -24 22 -22 67 34 66 80 -1 44 -74 184 -107 207 -26 18 -71 18
-112 0z"></path>
</g>
</svg>