<svg id="svg" xmlns="http://www.w3.org/2000/svg" xmlns:xlink="http://www.w3.org/1999/xlink" width="400" height="400.5288673424416" viewBox="0, 0, 400,400.5288673424416"><g id="svgg"><path id="path0" d="M191.460 0.254 C 191.347 0.367,191.309 0.497,191.340 0.659 C 191.379 0.864,191.291 0.993,190.718 1.573 L 190.051 2.248 189.833 3.173 C 189.410 4.971,189.267 7.411,189.502 8.814 C 189.554 9.130,189.598 9.637,189.598 9.941 C 189.599 10.352,189.654 10.604,189.812 10.916 C 189.930 11.148,190.072 11.593,190.128 11.905 C 190.361 13.195,190.830 14.220,191.356 14.584 C 191.555 14.722,191.739 14.921,191.766 15.027 C 191.793 15.133,192.208 15.612,192.689 16.092 C 193.378 16.778,193.595 17.054,193.706 17.389 C 193.783 17.623,193.982 17.990,194.146 18.206 C 194.311 18.421,194.686 19.078,194.980 19.666 L 195.516 20.733 195.290 21.521 C 195.121 22.110,195.064 22.513,195.064 23.119 L 195.064 23.930 191.188 29.748 C 187.615 35.110,187.281 35.644,186.920 36.561 C 186.705 37.109,186.368 37.814,186.170 38.129 L 185.811 38.702 185.788 41.497 C 185.768 43.898,185.787 44.405,185.923 45.086 C 186.310 47.027,186.803 48.445,187.737 50.310 C 188.936 52.703,188.998 54.456,188.051 59.203 C 188.030 59.308,187.836 59.505,187.616 59.643 C 187.398 59.781,187.219 59.924,187.219 59.960 C 187.219 59.997,187.130 60.028,187.021 60.030 C 186.555 60.037,185.809 60.935,185.809 61.487 C 185.809 61.921,185.773 62.028,185.532 62.302 C 185.379 62.476,185.182 62.781,185.094 62.980 C 185.006 63.180,184.854 63.415,184.756 63.504 C 184.637 63.611,184.594 63.730,184.627 63.861 C 184.684 64.089,183.214 67.104,182.914 67.375 C 182.806 67.472,182.707 67.705,182.672 67.948 C 182.639 68.172,182.538 68.503,182.448 68.683 C 182.357 68.863,182.283 69.104,182.283 69.219 C 182.283 69.333,182.182 69.722,182.059 70.082 C 180.683 74.104,180.385 79.281,181.418 81.213 C 181.526 81.415,181.617 81.790,181.643 82.138 C 181.677 82.593,181.734 82.774,181.895 82.947 C 182.010 83.070,182.128 83.308,182.157 83.476 C 182.186 83.644,182.270 83.939,182.342 84.132 C 182.649 84.948,182.652 88.044,182.346 88.392 C 182.263 88.487,182.201 88.799,182.175 89.246 C 182.137 89.910,182.098 90.025,181.500 91.214 C 180.719 92.767,179.482 96.187,179.375 97.091 C 179.334 97.431,179.222 98.105,179.125 98.590 C 178.260 102.900,178.694 109.930,180.048 113.553 C 180.580 114.978,180.698 115.567,180.757 117.113 C 180.843 119.376,180.809 119.507,179.392 122.319 L 178.184 124.717 177.315 124.743 L 176.446 124.769 176.214 125.493 L 175.981 126.218 175.011 126.651 C 166.540 130.431,159.639 129.398,153.323 123.402 C 152.165 122.303,151.059 121.416,149.934 120.685 C 149.522 120.417,149.004 120.012,148.783 119.785 C 148.550 119.546,148.235 119.326,148.034 119.262 C 147.593 119.122,147.011 118.790,146.647 118.471 C 146.485 118.329,146.120 118.156,145.791 118.066 C 145.390 117.955,145.108 117.809,144.852 117.577 C 144.589 117.338,144.305 117.193,143.839 117.059 C 142.833 116.770,142.611 116.688,140.635 115.889 C 138.932 115.200,136.960 114.499,134.729 113.790 C 131.040 112.618,126.289 109.943,124.442 107.999 C 123.985 107.518,123.050 106.183,123.050 106.012 C 123.050 105.713,120.942 102.385,119.996 101.190 C 119.708 100.826,119.241 100.172,118.957 99.736 C 118.308 98.736,117.704 97.962,116.637 96.760 C 114.565 94.425,113.876 94.066,110.323 93.474 C 100.940 91.910,95.706 88.645,92.270 82.209 C 90.583 79.050,87.220 74.723,86.161 74.350 C 85.853 74.241,85.560 74.033,85.187 73.655 C 84.893 73.359,84.358 72.947,83.997 72.740 C 83.636 72.533,83.094 72.188,82.791 71.974 C 82.489 71.759,82.013 71.514,81.734 71.429 C 81.454 71.344,81.117 71.201,80.985 71.111 C 80.131 70.530,78.939 70.193,76.686 69.896 C 70.617 69.095,66.038 67.248,61.106 63.611 L 60.379 63.075 60.379 62.668 C 60.379 62.259,60.343 62.172,59.649 60.908 C 59.476 60.593,59.228 60.019,59.099 59.633 C 58.922 59.107,58.778 58.849,58.520 58.598 C 58.330 58.414,58.175 58.224,58.175 58.176 C 58.175 58.127,58.079 58.087,57.961 58.087 C 57.686 58.087,57.593 58.362,57.744 58.727 C 57.832 58.940,57.834 59.009,57.751 59.037 C 57.426 59.145,57.358 59.346,57.411 60.040 C 57.459 60.660,57.442 60.771,57.225 61.234 C 56.994 61.727,56.984 61.808,56.957 63.464 L 56.929 65.183 57.466 66.321 C 58.075 67.611,58.457 68.275,59.071 69.115 C 59.305 69.436,59.558 69.846,59.634 70.026 C 59.953 70.791,62.350 72.890,64.566 74.346 C 66.062 75.329,67.031 76.083,68.538 77.437 C 68.977 77.831,69.463 78.248,69.618 78.363 C 69.951 78.608,70.769 79.661,71.028 80.175 C 71.128 80.372,71.350 80.642,71.522 80.773 C 71.954 81.103,72.053 81.322,72.027 81.897 C 72.007 82.343,72.051 82.483,72.477 83.318 C 72.807 83.963,72.930 84.294,72.885 84.409 C 72.672 84.952,72.803 85.983,73.292 87.616 C 73.670 88.876,73.777 89.362,73.777 89.821 C 73.777 90.390,74.719 92.576,76.004 94.993 C 77.207 97.253,81.435 100.908,83.934 101.849 C 84.164 101.936,84.399 102.064,84.458 102.134 C 84.516 102.204,84.855 102.421,85.211 102.616 C 85.654 102.860,85.903 103.059,86.000 103.249 C 86.196 103.630,86.453 103.949,86.651 104.056 C 87.008 104.249,89.168 107.590,89.462 108.404 C 89.731 109.151,89.763 109.196,90.447 109.777 C 91.334 110.530,91.887 111.338,92.109 112.202 C 92.223 112.645,92.421 113.062,92.773 113.600 C 93.049 114.022,93.623 114.903,94.049 115.558 C 94.475 116.212,95.183 117.177,95.622 117.702 C 96.060 118.227,96.444 118.768,96.473 118.904 C 96.634 119.636,101.078 124.012,103.805 126.123 C 105.784 127.656,108.645 132.893,110.220 137.866 C 110.392 138.412,110.592 138.923,110.664 139.002 C 110.736 139.081,111.056 139.660,111.376 140.287 C 111.696 140.915,112.284 141.924,112.683 142.530 C 113.082 143.136,113.598 143.941,113.831 144.320 C 114.064 144.698,114.479 145.313,114.754 145.686 C 115.029 146.059,115.606 146.909,116.038 147.574 L 116.821 148.784 119.205 150.571 C 121.695 152.439,123.479 153.897,123.614 154.177 C 123.658 154.267,123.743 154.341,123.802 154.341 C 123.862 154.341,124.254 154.702,124.674 155.143 C 127.079 157.670,128.172 160.700,127.430 162.782 C 127.216 163.385,127.210 163.440,127.336 163.742 C 127.463 164.046,127.458 164.088,127.243 164.567 C 127.072 164.948,127.016 165.219,127.016 165.663 C 127.016 166.197,126.969 166.353,126.532 167.273 C 126.220 167.929,126.014 168.499,125.953 168.875 C 125.901 169.195,125.805 169.656,125.739 169.899 C 125.673 170.141,125.583 170.706,125.537 171.154 C 125.456 171.957,125.449 171.975,125.052 172.400 C 124.808 172.660,124.610 172.975,124.551 173.195 C 124.478 173.465,124.364 173.618,124.109 173.786 C 123.875 173.941,123.746 174.103,123.705 174.292 C 123.606 174.752,123.343 175.190,122.882 175.664 L 122.444 176.113 120.654 176.113 C 112.078 176.116,107.063 177.447,102.556 180.915 C 101.329 181.859,97.764 183.167,95.068 183.663 C 92.973 184.048,91.763 183.895,89.907 183.012 C 88.420 182.304,86.035 181.524,84.214 181.151 C 82.257 180.749,81.538 180.680,78.827 180.633 L 76.165 180.587 75.434 180.827 C 73.911 181.328,72.945 181.986,71.916 183.224 C 71.561 183.652,70.871 184.413,70.383 184.915 L 69.495 185.828 68.793 185.690 C 65.001 184.947,61.853 184.808,54.457 185.061 L 49.758 185.222 49.471 185.552 C 49.260 185.795,49.088 185.898,48.819 185.943 C 48.275 186.035,47.882 186.221,47.245 186.689 C 46.930 186.920,46.494 187.199,46.276 187.309 C 45.276 187.812,44.132 188.781,43.623 189.558 C 43.497 189.750,43.162 190.264,42.878 190.701 C 42.286 191.612,41.661 192.250,40.517 193.111 L 39.709 193.718 38.519 193.812 C 37.288 193.909,36.490 194.113,36.033 194.448 C 35.457 194.869,29.377 194.163,28.705 193.597 C 28.358 193.306,28.016 193.174,27.160 193.000 C 26.760 192.919,26.163 192.755,25.833 192.636 C 24.598 192.191,19.864 192.390,17.183 193.000 C 16.603 193.132,16.596 193.137,15.977 193.900 C 13.111 197.435,8.504 200.264,5.614 200.264 C 4.430 200.264,2.743 200.434,1.701 200.657 C 0.688 200.874,-0.102 201.135,0.235 201.142 C 0.405 201.145,0.434 201.210,0.487 201.711 C 0.559 202.386,0.773 202.772,1.165 202.939 C 1.324 203.006,1.961 203.384,2.579 203.778 C 5.688 205.758,6.577 205.989,11.080 205.992 C 15.003 205.994,17.328 205.724,18.735 205.101 C 19.532 204.749,21.203 204.912,22.449 205.463 C 22.724 205.585,23.041 205.641,23.451 205.641 C 24.113 205.641,24.008 205.582,25.260 206.663 C 27.086 208.240,29.573 209.413,32.369 210.015 C 33.637 210.288,37.504 210.423,38.607 210.233 C 38.922 210.179,40.311 210.014,41.692 209.868 C 43.074 209.721,44.304 209.560,44.425 209.508 C 44.546 209.457,45.309 209.400,46.120 209.381 L 47.594 209.348 48.720 209.962 C 49.339 210.299,50.520 210.880,51.344 211.252 C 52.265 211.668,53.301 212.222,54.033 212.690 C 56.121 214.028,56.204 214.070,57.162 214.266 C 58.896 214.620,59.966 214.720,62.003 214.720 L 63.973 214.720 64.109 214.512 C 64.202 214.371,64.366 214.285,64.621 214.244 C 65.394 214.120,67.112 213.301,67.811 212.724 C 70.188 210.757,74.001 210.960,76.800 213.202 C 77.557 213.809,78.224 214.256,79.506 215.019 C 79.725 215.149,80.181 215.452,80.520 215.693 C 81.306 216.251,82.677 216.936,83.688 217.276 L 84.476 217.541 87.063 217.541 C 89.511 217.541,89.663 217.531,89.889 217.365 C 90.020 217.268,91.100 216.888,92.287 216.522 L 94.447 215.856 95.769 215.911 C 98.225 216.014,102.239 217.638,104.888 219.601 C 105.586 220.119,106.166 220.485,106.298 220.493 C 106.422 220.501,106.725 220.652,106.971 220.829 C 108.507 221.932,109.683 222.256,111.883 222.180 C 113.747 222.116,113.658 222.143,114.720 221.331 L 115.425 220.791 116.924 220.835 C 119.732 220.917,121.797 221.861,124.045 224.091 C 124.514 224.557,125.107 225.073,125.362 225.239 C 126.397 225.911,126.779 226.580,127.681 229.308 C 128.559 231.963,128.981 233.652,128.873 234.081 C 128.725 234.668,128.761 235.118,129.007 235.763 C 129.602 237.325,128.440 241.531,126.528 244.736 C 125.918 245.757,125.867 245.803,125.508 245.655 C 125.262 245.553,125.223 245.558,125.139 245.708 C 124.855 246.216,122.857 248.201,122.455 248.373 C 121.949 248.591,121.811 248.733,121.538 249.317 C 121.371 249.671,121.222 249.827,120.773 250.110 C 118.346 251.644,116.869 252.727,115.490 253.984 C 115.089 254.349,114.574 254.744,114.344 254.862 C 113.820 255.130,113.301 255.669,113.227 256.021 C 113.196 256.170,112.995 256.492,112.781 256.737 C 112.566 256.982,112.307 257.396,112.205 257.657 C 112.103 257.918,111.927 258.230,111.815 258.352 C 111.530 258.658,110.517 260.470,109.892 261.789 C 109.604 262.395,109.280 263.010,109.171 263.156 C 108.801 263.647,108.530 264.296,108.207 265.464 C 107.891 266.607,107.728 267.010,106.778 269.002 C 106.400 269.795,106.302 270.091,106.302 270.438 C 106.302 270.736,106.232 271.009,106.082 271.290 C 105.945 271.547,105.862 271.848,105.862 272.084 C 105.862 272.502,105.679 272.933,105.468 273.014 C 105.368 273.053,105.333 273.199,105.333 273.576 C 105.333 273.991,105.269 274.215,104.985 274.791 C 104.793 275.178,104.423 275.952,104.163 276.509 C 103.124 278.731,100.810 281.929,100.454 281.633 C 100.331 281.531,100.193 281.619,99.393 282.310 C 97.239 284.170,97.230 284.174,94.265 284.842 C 90.341 285.725,88.097 287.737,87.877 290.571 C 87.835 291.111,87.755 291.485,87.627 291.736 C 87.461 292.063,87.439 292.251,87.439 293.411 C 87.439 294.732,87.247 296.717,87.102 296.902 C 87.058 296.958,86.998 297.287,86.967 297.634 C 86.936 297.981,86.832 298.516,86.736 298.824 C 86.639 299.131,86.560 299.459,86.559 299.552 C 86.557 299.927,85.820 301.918,85.506 302.400 C 85.030 303.128,79.570 308.362,77.696 309.885 C 76.870 310.557,75.848 311.401,75.425 311.762 L 74.656 312.417 73.585 314.450 C 72.996 315.568,72.403 316.611,72.268 316.768 C 72.132 316.925,71.979 317.213,71.926 317.407 C 71.874 317.602,71.796 317.761,71.753 317.761 C 71.260 317.761,70.075 320.189,70.075 321.199 C 70.075 321.871,69.711 323.104,69.248 323.999 C 69.170 324.151,69.105 324.354,69.105 324.451 C 69.105 325.968,66.323 332.565,65.496 333.007 C 65.408 333.055,65.313 333.184,65.285 333.294 C 65.203 333.618,64.363 334.534,63.496 335.245 C 62.290 336.235,61.529 336.973,61.469 337.213 C 61.404 337.472,59.492 338.768,58.220 339.416 C 57.759 339.650,57.383 339.867,57.383 339.897 C 57.382 340.020,58.068 340.268,58.570 340.327 C 58.862 340.362,59.577 340.521,60.159 340.682 C 62.691 341.380,65.920 341.106,68.094 340.010 C 70.989 338.550,72.030 337.529,75.099 333.142 C 76.351 331.353,76.902 330.648,77.615 329.925 C 78.378 329.153,78.561 328.912,78.724 328.471 C 79.256 327.034,81.231 324.610,82.874 323.379 C 86.384 320.748,97.520 315.920,104.584 313.966 C 105.454 313.725,105.730 313.606,106.144 313.292 C 106.420 313.081,107.041 312.712,107.522 312.471 C 108.475 311.994,109.465 311.321,110.346 310.550 C 112.283 308.855,115.431 303.790,116.837 300.105 C 117.869 297.398,117.916 297.356,122.212 295.215 C 127.204 292.729,131.210 291.125,137.902 288.934 C 145.073 286.587,144.939 286.712,147.811 279.688 C 148.494 278.018,149.054 276.610,149.056 276.559 C 149.059 276.472,149.317 276.283,151.350 274.874 C 153.925 273.090,158.042 271.488,161.067 271.092 C 162.228 270.941,165.438 270.905,165.853 271.039 C 165.993 271.085,166.708 271.165,167.441 271.218 C 174.750 271.746,178.493 276.591,178.493 285.525 C 178.493 286.999,178.226 288.173,177.624 289.354 C 177.474 289.648,177.435 289.881,177.435 290.488 C 177.435 291.082,177.386 291.389,177.215 291.863 C 176.995 292.473,176.994 292.479,176.995 295.708 L 176.996 298.942 177.211 299.318 C 177.329 299.524,177.572 300.179,177.751 300.772 C 178.155 302.114,178.056 301.957,178.889 302.576 C 179.986 303.390,181.842 305.372,181.842 305.730 C 181.842 305.770,182.022 306.092,182.242 306.445 C 183.061 307.758,183.426 308.781,183.428 309.766 C 183.429 310.188,183.481 310.465,183.605 310.710 C 183.753 311.000,183.781 311.229,183.781 312.153 C 183.781 313.055,183.750 313.324,183.605 313.662 C 183.478 313.960,183.429 314.270,183.429 314.781 C 183.429 315.410,183.404 315.517,183.204 315.755 C 182.694 316.361,181.514 320.277,181.626 320.991 C 181.685 321.366,181.441 323.429,181.309 323.676 C 181.261 323.764,181.225 325.013,181.225 326.554 L 181.225 329.277 181.436 329.475 C 181.607 329.636,181.658 329.799,181.709 330.338 C 181.781 331.105,183.327 334.383,184.123 335.455 C 184.347 335.757,184.769 336.368,185.059 336.812 C 185.350 337.256,185.934 338.048,186.356 338.571 C 189.176 342.067,189.909 344.242,189.602 348.208 L 189.520 349.259 188.852 349.932 C 188.201 350.586,188.176 350.628,187.890 351.525 C 187.729 352.032,187.432 352.820,187.231 353.277 L 186.866 354.107 186.866 355.661 C 186.866 356.515,186.904 357.252,186.949 357.298 C 187.063 357.413,187.307 359.819,187.307 360.822 C 187.307 361.952,188.433 364.877,189.112 365.511 C 189.331 365.716,189.511 365.956,189.511 366.045 C 189.511 366.380,191.071 369.389,191.352 369.597 C 192.186 370.213,193.191 376.974,192.552 377.664 L 192.331 377.901 192.332 379.982 L 192.333 382.063 193.078 383.427 C 193.488 384.177,194.166 385.573,194.586 386.530 C 195.067 387.626,195.466 388.406,195.663 388.636 C 195.923 388.939,195.983 389.088,196.016 389.499 C 196.037 389.772,196.090 390.040,196.134 390.094 C 196.268 390.263,197.885 398.859,197.885 399.407 C 197.885 400.665,199.148 401.048,199.423 399.873 C 199.456 399.730,199.605 399.474,199.754 399.304 C 200.679 398.251,201.434 395.241,201.591 391.979 C 201.637 391.033,201.688 390.101,201.706 389.907 C 201.754 389.382,201.603 386.879,201.454 385.706 C 201.381 385.140,201.322 384.544,201.322 384.381 C 201.322 384.218,201.266 384.004,201.197 383.906 C 200.771 383.298,200.752 382.268,201.154 381.611 C 201.267 381.427,201.322 381.174,201.322 380.841 C 201.322 380.411,201.363 380.292,201.628 379.944 C 201.940 379.536,202.292 378.581,202.292 378.143 C 202.292 377.949,202.425 377.789,202.958 377.343 C 203.993 376.476,204.666 375.494,204.983 374.390 C 205.074 374.072,205.300 373.639,205.555 373.292 C 205.908 372.812,205.986 372.634,206.037 372.190 C 206.071 371.900,206.152 371.472,206.219 371.240 C 206.285 371.008,206.364 370.413,206.396 369.918 C 206.438 369.242,206.511 368.874,206.686 368.444 L 206.919 367.871 206.901 365.160 L 206.882 362.449 206.644 362.043 L 206.406 361.638 206.466 358.074 L 206.526 354.510 207.130 353.812 C 208.035 352.764,208.986 351.493,209.603 350.507 C 209.906 350.022,210.223 349.546,210.307 349.449 C 210.391 349.352,210.509 349.094,210.570 348.876 C 210.631 348.658,210.794 348.301,210.933 348.083 C 211.346 347.431,211.543 346.917,211.545 346.487 C 211.547 346.084,211.693 345.523,211.818 345.438 C 211.854 345.414,211.950 345.136,212.031 344.821 C 212.112 344.506,212.250 344.130,212.338 343.984 C 212.457 343.786,212.509 343.466,212.543 342.706 C 212.600 341.462,212.756 340.087,212.871 339.815 C 212.922 339.695,212.956 338.259,212.955 336.289 L 212.953 332.966 212.687 331.952 C 212.430 330.972,212.238 330.054,212.079 329.044 C 212.014 328.633,211.245 325.603,210.657 323.446 C 210.315 322.189,209.860 319.717,209.813 318.863 L 209.765 317.981 211.172 315.646 C 211.945 314.361,212.955 312.636,213.415 311.811 C 213.875 310.987,214.471 309.976,214.740 309.564 C 217.154 305.864,219.921 299.521,219.921 297.689 C 219.921 297.356,220.027 296.702,220.182 296.092 C 220.825 293.542,220.765 290.150,220.017 286.798 C 218.893 281.762,219.122 277.978,220.691 275.660 C 221.172 274.950,221.315 274.652,221.427 274.132 C 221.522 273.687,221.525 273.684,222.360 273.193 C 225.797 271.170,229.013 270.163,232.037 270.163 C 233.663 270.163,233.758 270.154,233.848 269.987 C 233.963 269.771,234.302 269.759,235.303 269.935 C 237.915 270.395,241.213 271.942,242.166 273.154 C 242.389 273.439,243.192 274.321,243.948 275.113 C 245.315 276.544,245.327 276.561,245.876 277.699 C 246.480 278.954,246.957 279.644,247.745 280.402 C 248.028 280.674,248.477 281.184,248.744 281.534 C 249.806 282.930,251.701 284.512,253.455 285.468 C 253.911 285.717,254.397 285.999,254.533 286.094 C 255.137 286.517,257.133 286.999,258.283 286.999 C 258.974 286.999,259.041 287.016,259.473 287.307 C 259.870 287.575,260.002 287.616,260.461 287.616 C 261.836 287.616,264.571 288.193,265.535 288.687 C 267.616 289.752,270.006 291.977,270.824 293.610 C 271.343 294.646,271.790 295.348,272.230 295.813 C 273.007 296.636,273.555 297.333,273.861 297.885 C 274.951 299.856,277.656 303.023,278.370 303.164 C 278.554 303.200,278.818 303.372,279.057 303.609 C 279.296 303.847,279.558 304.017,279.737 304.051 C 279.931 304.087,280.172 304.255,280.451 304.547 C 280.683 304.790,281.310 305.301,281.845 305.683 C 282.379 306.064,282.983 306.574,283.187 306.816 C 283.472 307.154,283.635 307.269,283.890 307.314 C 284.117 307.353,284.345 307.493,284.610 307.755 C 284.828 307.971,285.118 308.162,285.271 308.193 C 285.432 308.225,285.722 308.424,285.977 308.678 C 286.232 308.931,286.523 309.131,286.683 309.163 C 286.834 309.193,287.121 309.382,287.331 309.592 C 287.615 309.874,287.901 310.038,288.501 310.261 C 289.190 310.516,289.331 310.604,289.565 310.930 C 290.251 311.887,290.754 312.172,293.461 313.144 C 295.414 313.845,296.735 314.401,299.639 315.742 L 303.332 317.447 304.228 318.257 C 304.910 318.874,305.148 319.149,305.226 319.406 C 305.289 319.616,305.575 320.013,305.978 320.450 L 306.628 321.155 306.676 321.757 C 306.789 323.170,309.115 326.119,311.367 327.705 C 311.802 328.011,312.252 328.393,312.367 328.556 C 312.594 328.875,313.699 329.384,316.223 330.330 C 320.657 331.992,326.625 333.293,330.946 333.541 C 334.420 333.739,337.897 334.448,340.402 335.467 C 341.052 335.732,342.166 336.465,343.299 337.373 C 344.123 338.034,344.176 338.035,344.607 337.401 C 344.749 337.192,344.902 336.994,344.947 336.962 C 345.182 336.793,344.545 335.479,343.868 334.734 C 343.593 334.431,343.192 333.974,342.979 333.719 C 342.765 333.463,342.150 332.879,341.613 332.420 C 341.075 331.961,340.601 331.488,340.560 331.369 C 340.508 331.218,340.280 331.049,339.811 330.811 C 339.402 330.604,338.131 329.700,336.580 328.513 C 335.174 327.437,333.905 326.515,333.759 326.463 C 332.167 325.896,328.975 323.807,328.566 323.064 C 328.522 322.984,328.336 322.746,328.152 322.536 C 327.948 322.302,327.745 321.927,327.626 321.567 C 327.393 320.857,327.223 320.510,326.805 319.890 C 326.571 319.541,326.487 319.325,326.487 319.062 C 326.487 318.797,326.395 318.560,326.127 318.136 C 325.929 317.822,325.591 317.144,325.375 316.629 C 324.884 315.458,324.248 314.261,323.540 313.178 C 323.239 312.717,322.722 311.864,322.391 311.283 C 320.977 308.795,320.134 307.671,319.480 307.400 C 317.689 306.658,312.924 302.580,311.707 300.747 C 310.471 298.886,309.035 295.183,309.035 293.856 C 309.035 293.513,308.977 293.336,308.759 293.020 C 308.581 292.761,308.365 292.209,308.149 291.462 C 307.037 287.606,306.000 286.269,302.874 284.655 C 300.172 283.260,297.705 281.177,296.597 279.355 C 295.650 277.796,294.932 275.969,294.932 275.119 C 294.932 274.760,294.875 274.533,294.717 274.264 C 294.567 274.007,294.447 273.557,294.318 272.757 C 294.217 272.130,294.019 271.141,293.879 270.560 C 293.739 269.978,293.579 269.150,293.524 268.720 C 293.108 265.480,290.460 262.330,287.254 261.259 C 282.075 259.530,278.939 255.191,278.369 248.964 C 278.209 247.223,277.860 246.521,276.151 244.513 C 272.696 240.451,270.907 237.625,269.874 234.597 C 269.474 233.422,269.418 231.804,269.757 231.168 C 269.941 230.823,269.987 230.614,269.987 230.128 C 269.987 229.624,270.025 229.463,270.207 229.195 C 270.331 229.012,270.428 228.745,270.428 228.581 C 270.428 228.188,271.843 225.367,272.279 224.891 C 272.462 224.692,272.640 224.401,272.674 224.245 C 272.711 224.077,272.914 223.782,273.169 223.526 C 273.406 223.287,273.601 223.042,273.602 222.983 C 273.604 222.859,275.250 220.950,275.612 220.651 L 275.848 220.456 285.544 220.450 L 295.240 220.444 296.549 219.434 C 298.020 218.298,298.871 217.760,300.220 217.111 C 301.644 216.425,302.465 215.688,303.146 214.483 C 303.337 214.144,303.481 214.000,303.699 213.928 C 303.861 213.874,304.091 213.740,304.211 213.629 C 304.932 212.961,308.892 212.722,309.264 213.325 C 309.289 213.365,309.387 213.398,309.482 213.398 C 309.674 213.398,311.288 214.207,312.539 214.930 C 317.661 217.891,323.948 217.447,330.586 213.656 C 333.140 212.197,336.508 211.343,337.568 211.886 C 337.849 212.029,338.097 212.076,338.587 212.076 C 338.943 212.076,339.867 212.173,340.640 212.292 C 344.220 212.842,349.839 213.067,351.805 212.738 C 353.539 212.448,355.413 211.785,356.831 210.960 C 357.280 210.699,357.904 210.363,358.219 210.212 C 359.182 209.753,360.200 208.813,360.477 208.129 C 360.512 208.043,362.826 207.840,364.340 207.789 C 366.530 207.717,366.989 207.819,368.373 208.693 C 368.617 208.847,368.832 208.903,369.183 208.903 C 369.576 208.903,369.829 208.983,370.617 209.359 L 371.573 209.815 374.306 209.821 C 376.825 209.828,377.117 209.812,378.040 209.625 C 380.175 209.193,382.617 208.281,383.297 207.663 C 383.491 207.486,384.323 206.893,385.148 206.345 C 385.972 205.797,387.241 204.925,387.968 204.409 C 389.705 203.175,391.833 201.754,392.380 201.464 C 392.620 201.337,392.879 201.187,392.956 201.132 C 393.066 201.054,393.587 201.152,395.336 201.578 C 396.568 201.878,397.752 202.164,397.968 202.213 C 398.183 202.263,398.449 202.400,398.558 202.518 C 398.985 202.978,399.997 202.683,400.000 202.098 C 400.001 201.885,397.714 199.027,396.857 198.170 C 393.361 194.673,386.706 194.462,381.710 197.688 L 381.093 198.086 379.286 197.976 C 373.295 197.612,367.959 195.192,363.263 190.709 C 362.115 189.612,361.754 189.426,359.827 188.932 C 358.077 188.483,354.532 188.412,353.592 188.806 C 352.689 189.184,345.134 189.422,343.764 189.115 C 342.737 188.885,338.229 187.407,337.638 187.106 C 337.347 186.958,336.732 186.713,336.271 186.561 C 335.679 186.365,335.344 186.198,335.126 185.989 C 334.613 185.500,332.947 184.851,331.335 184.512 C 328.844 183.988,324.250 184.542,322.976 185.520 C 321.662 186.529,317.115 187.360,315.376 186.909 C 313.383 186.393,308.917 184.519,306.670 183.257 L 304.440 182.005 303.322 181.884 C 298.280 181.338,291.169 181.150,285.897 181.424 C 283.400 181.554,279.789 181.543,279.652 181.406 C 279.601 181.355,279.348 181.313,279.089 181.313 C 278.771 181.313,278.484 181.246,278.203 181.105 C 277.975 180.991,277.351 180.768,276.818 180.611 C 274.116 179.812,271.900 177.682,271.008 175.026 C 270.930 174.791,270.697 174.405,270.492 174.167 C 269.339 172.831,269.002 171.816,268.971 169.590 C 268.951 168.152,268.927 167.909,268.762 167.531 L 268.575 167.103 268.796 166.403 C 268.918 166.018,269.017 165.534,269.017 165.327 C 269.017 163.782,271.537 158.623,273.070 157.030 C 273.303 156.787,273.563 156.450,273.648 156.280 C 274.128 155.319,276.215 153.263,277.957 152.036 C 279.554 150.910,281.282 148.344,282.546 145.218 C 282.821 144.539,283.201 143.724,283.391 143.406 C 283.582 143.088,283.737 142.785,283.737 142.733 C 283.737 142.537,284.197 141.062,284.566 140.073 C 284.777 139.509,284.993 138.842,285.046 138.591 C 285.123 138.231,285.287 137.950,285.821 137.269 C 286.745 136.090,287.117 135.499,287.300 134.916 C 287.733 133.539,290.765 130.917,293.056 129.938 C 293.542 129.730,293.971 129.473,294.210 129.246 C 294.445 129.022,294.710 128.862,294.907 128.825 C 295.134 128.783,295.334 128.644,295.604 128.345 C 295.917 127.997,296.117 127.873,296.757 127.633 C 297.202 127.466,297.701 127.203,297.929 127.015 C 298.147 126.835,298.504 126.597,298.722 126.487 C 298.940 126.376,299.365 126.035,299.666 125.728 C 299.967 125.421,300.347 125.115,300.510 125.047 C 300.781 124.933,301.631 123.948,301.631 123.746 C 301.631 123.537,302.290 122.957,302.632 122.867 C 302.919 122.792,303.167 122.596,303.790 121.952 C 304.339 121.386,304.722 121.070,305.033 120.930 C 305.307 120.806,305.564 120.608,305.692 120.422 C 305.806 120.255,306.124 119.935,306.398 119.711 C 306.672 119.487,307.149 119.080,307.458 118.807 C 307.772 118.531,308.147 118.284,308.304 118.250 C 308.493 118.210,308.648 118.091,308.768 117.896 C 308.868 117.735,309.078 117.506,309.235 117.386 C 309.405 117.255,309.758 116.743,310.114 116.108 C 310.441 115.526,310.895 114.836,311.123 114.576 C 311.351 114.316,311.590 114.040,311.654 113.962 C 311.718 113.885,313.078 109.962,314.676 105.245 C 316.274 100.528,317.592 96.661,317.605 96.651 C 317.685 96.592,318.950 95.921,319.392 95.703 C 320.653 95.080,321.539 94.495,321.745 94.149 C 321.857 93.961,322.154 93.646,322.404 93.448 C 322.654 93.250,322.884 93.047,322.915 92.997 C 322.946 92.946,323.045 92.904,323.134 92.904 C 323.224 92.904,323.500 92.682,323.748 92.410 C 325.899 90.057,327.685 86.089,328.346 82.195 C 328.404 81.855,328.525 81.473,328.615 81.344 C 328.751 81.150,328.779 80.943,328.779 80.137 C 328.779 77.364,329.822 73.274,331.090 71.077 C 331.401 70.537,331.809 69.744,331.996 69.314 C 333.144 66.676,337.163 64.810,343.127 64.146 L 344.121 64.035 342.752 63.246 C 341.884 62.746,341.384 62.406,341.384 62.316 C 341.384 62.238,341.266 62.062,341.121 61.923 L 340.858 61.671 340.392 61.830 C 339.946 61.981,339.879 61.982,338.914 61.839 C 336.593 61.495,331.658 61.576,330.886 61.970 C 330.303 62.269,330.006 62.323,328.515 62.400 L 327.149 62.471 325.248 63.398 C 323.115 64.439,322.008 65.193,320.963 66.315 C 320.466 66.849,320.227 67.026,319.586 67.333 C 319.132 67.550,318.784 67.775,318.747 67.874 C 318.630 68.189,317.192 69.737,316.637 70.145 C 316.206 70.462,316.086 70.600,316.086 70.779 C 316.086 70.933,315.966 71.124,315.724 71.357 C 315.524 71.549,314.210 73.009,312.803 74.601 C 310.137 77.619,309.616 78.108,308.702 78.450 C 304.413 80.056,302.653 80.547,298.722 81.233 C 296.258 81.663,295.280 81.868,295.152 81.979 C 295.055 82.064,294.718 82.249,294.403 82.391 C 291.044 83.905,288.653 85.806,288.277 87.264 C 288.196 87.579,288.074 87.899,288.005 87.975 C 287.936 88.052,287.880 88.278,287.880 88.477 C 287.880 88.680,287.803 88.970,287.706 89.135 C 287.610 89.297,287.495 89.686,287.449 89.999 C 287.149 92.053,285.061 96.173,283.164 98.452 C 282.553 99.187,281.759 99.956,281.613 99.956 C 281.573 99.956,281.364 100.127,281.148 100.337 C 280.348 101.115,279.772 101.401,277.920 101.939 C 271.583 103.781,265.169 106.511,260.253 109.457 C 257.533 111.088,255.372 113.459,254.694 115.558 C 254.484 116.208,254.142 116.877,253.990 116.935 C 253.923 116.961,253.840 117.108,253.807 117.262 C 253.774 117.415,253.672 117.688,253.581 117.868 C 253.473 118.081,253.415 118.387,253.412 118.749 C 253.409 119.368,253.322 119.573,252.920 119.909 C 252.750 120.050,252.605 120.284,252.542 120.514 C 252.468 120.790,252.345 120.961,252.083 121.155 C 251.796 121.367,251.668 121.562,251.431 122.148 C 250.403 124.695,245.091 128.502,241.336 129.384 C 240.926 129.481,239.996 129.702,239.268 129.875 C 238.541 130.049,237.609 130.250,237.197 130.323 C 235.688 130.587,230.674 130.420,230.674 130.106 C 230.674 129.996,230.511 129.938,229.962 129.852 C 229.184 129.729,227.205 129.249,226.980 129.129 C 226.903 129.087,226.622 128.986,226.355 128.904 C 224.139 128.224,222.064 126.354,221.110 124.179 C 220.274 122.271,220.122 121.404,220.494 120.670 L 220.714 120.235 220.714 116.255 L 220.714 112.275 220.451 111.976 C 220.306 111.811,220.164 111.568,220.136 111.435 C 219.488 108.436,217.364 104.131,215.254 101.543 C 214.747 100.921,214.718 100.860,214.764 100.524 C 214.792 100.327,214.816 99.474,214.819 98.629 L 214.825 97.091 215.162 96.562 C 215.489 96.048,215.500 96.004,215.561 94.976 C 215.630 93.807,215.710 93.573,216.164 93.227 C 216.412 93.038,216.485 92.910,216.534 92.578 C 216.569 92.350,216.690 91.953,216.804 91.694 C 217.028 91.189,217.118 88.772,216.931 88.303 C 216.887 88.192,216.783 87.644,216.700 87.087 C 216.617 86.529,216.455 85.781,216.340 85.423 C 216.225 85.065,216.130 84.657,216.130 84.516 C 216.130 84.375,216.055 84.110,215.962 83.928 C 215.869 83.746,215.733 83.369,215.660 83.090 C 215.568 82.736,215.423 82.469,215.182 82.207 C 214.992 82.001,214.697 81.576,214.526 81.264 C 214.356 80.952,213.927 80.161,213.573 79.506 C 213.219 78.852,212.459 77.532,211.885 76.573 C 209.825 73.133,209.608 72.535,209.608 70.301 C 209.608 68.897,209.626 68.711,209.792 68.384 C 209.895 68.183,210.031 67.637,210.099 67.152 C 210.166 66.673,210.281 66.050,210.354 65.768 C 210.427 65.486,210.548 64.790,210.622 64.221 C 210.705 63.593,210.817 63.096,210.910 62.955 C 211.197 62.517,211.129 58.213,210.818 57.076 C 210.654 56.477,210.577 55.982,210.577 55.527 C 210.577 54.813,209.816 52.662,208.653 50.090 C 207.931 48.492,206.265 45.571,206.076 45.571 C 205.942 45.571,204.597 44.251,204.183 43.714 C 202.462 41.481,202.214 39.091,203.449 36.646 C 203.591 36.365,203.880 35.670,204.092 35.101 C 204.531 33.923,205.439 31.776,205.811 31.039 C 206.047 30.572,206.064 30.461,206.098 29.220 C 206.126 28.180,206.166 27.836,206.288 27.609 C 206.691 26.852,206.579 22.507,206.119 21.067 C 205.967 20.591,205.908 20.200,205.907 19.675 C 205.906 19.237,205.854 18.822,205.777 18.637 C 205.706 18.468,205.604 18.086,205.550 17.788 C 205.482 17.415,205.392 17.200,205.257 17.094 C 205.150 17.010,204.948 16.723,204.809 16.456 C 204.490 15.847,203.626 14.633,202.895 13.768 C 202.588 13.403,202.257 12.944,202.160 12.746 C 202.043 12.508,200.914 11.348,198.807 9.301 C 193.075 3.730,192.749 3.287,192.540 0.778 L 192.482 0.088 192.054 0.088 C 191.753 0.088,191.577 0.137,191.460 0.254 M205.156 138.300 C 220.297 139.389,231.404 144.650,242.486 155.982 C 257.535 171.372,263.806 190.098,260.414 209.520 C 258.347 221.356,253.367 232.147,245.789 241.208 C 245.221 241.886,244.579 242.667,244.362 242.942 C 244.146 243.217,243.815 243.548,243.628 243.678 C 243.442 243.807,243.276 243.970,243.262 244.039 C 243.214 244.263,237.831 249.937,236.548 251.115 C 234.616 252.890,233.684 253.552,231.379 254.782 C 229.236 255.926,226.566 257.460,224.548 258.706 C 221.298 260.714,214.815 262.479,207.977 263.218 C 206.311 263.398,199.476 263.369,197.091 263.173 C 190.349 262.616,176.999 258.590,170.723 255.219 C 166.844 253.136,161.383 249.408,159.961 247.872 C 159.696 247.586,158.829 246.862,158.034 246.263 C 151.978 241.702,144.677 231.954,140.812 223.270 C 137.174 215.096,135.511 203.195,136.488 192.331 C 136.564 191.483,136.604 190.645,136.575 190.469 C 136.435 189.591,137.685 184.268,138.835 180.854 C 141.008 174.398,145.492 165.961,149.426 160.928 C 149.965 160.238,150.548 159.474,150.721 159.229 C 151.594 157.994,153.906 155.344,154.204 155.236 C 154.563 155.107,154.870 154.754,154.870 154.473 C 154.870 154.339,154.989 154.198,155.245 154.031 C 155.451 153.896,155.799 153.636,156.019 153.454 C 156.632 152.945,164.169 148.295,165.796 147.421 C 174.564 142.713,185.064 139.506,195.108 138.467 C 197.378 138.232,202.930 138.140,205.156 138.300 M152.182 154.505 L 151.942 154.738 152.150 154.411 C 152.264 154.231,152.373 154.126,152.390 154.178 C 152.408 154.230,152.315 154.377,152.182 154.505 M223.282 167.231 C 222.871 167.486,222.146 167.657,221.111 167.745 C 218.822 167.940,216.512 168.309,214.279 168.838 C 213.576 169.004,212.565 169.202,212.032 169.277 C 210.424 169.504,208.505 170.015,208.125 170.319 C 207.770 170.602,207.205 170.912,207.045 170.912 C 206.989 170.912,206.759 171.044,206.535 171.205 C 206.310 171.367,205.941 171.604,205.715 171.733 C 205.287 171.978,204.320 172.986,204.319 173.188 C 204.319 173.252,204.195 173.485,204.043 173.706 L 203.766 174.108 203.722 176.119 C 203.679 178.029,203.687 178.157,203.869 178.644 C 203.975 178.927,204.094 179.434,204.135 179.773 C 204.296 181.109,205.178 183.736,206.049 185.476 C 206.536 186.448,206.685 185.835,204.796 190.613 L 203.158 194.755 203.111 196.078 C 203.077 197.058,203.105 197.719,203.222 198.634 C 203.308 199.312,203.402 200.284,203.431 200.793 C 203.482 201.678,203.503 201.755,203.902 202.532 C 204.131 202.980,204.319 203.443,204.319 203.562 C 204.319 203.684,204.410 203.849,204.530 203.943 C 204.646 204.035,204.901 204.424,205.096 204.809 C 205.292 205.194,205.591 205.727,205.761 205.993 C 205.931 206.259,206.063 206.482,206.054 206.489 C 206.045 206.496,205.288 206.846,204.372 207.266 C 203.083 207.858,202.596 208.129,202.217 208.466 C 201.948 208.706,201.682 208.903,201.626 208.903 C 201.571 208.903,201.355 209.026,201.146 209.177 C 200.938 209.328,200.565 209.569,200.318 209.714 C 200.070 209.858,199.719 210.119,199.538 210.294 L 199.207 210.612 198.744 210.453 C 198.490 210.365,198.010 210.158,197.679 209.994 L 197.077 209.696 194.747 209.696 C 193.466 209.696,192.348 209.733,192.264 209.778 C 192.180 209.823,192.052 209.884,191.979 209.913 C 191.550 210.088,190.888 210.705,190.787 211.024 C 190.750 211.142,190.562 211.392,190.369 211.579 C 190.025 211.913,190.019 211.930,190.073 212.390 C 190.103 212.647,190.093 212.880,190.051 212.906 C 189.894 213.003,189.756 213.772,189.881 213.851 C 190.040 213.952,190.790 213.945,191.175 213.839 C 191.842 213.656,197.117 212.684,197.223 212.725 C 197.285 212.748,197.384 212.979,197.445 213.237 C 197.754 214.552,197.998 215.233,198.350 215.756 L 198.721 216.307 199.206 216.305 C 199.901 216.304,200.247 216.152,200.889 215.571 C 201.200 215.288,201.686 214.912,201.969 214.734 C 202.252 214.557,202.592 214.325,202.725 214.219 C 202.857 214.113,204.291 213.304,205.912 212.422 C 209.714 210.352,209.608 210.453,209.608 208.903 C 209.608 207.648,209.543 207.531,208.610 207.096 L 207.854 206.743 207.849 206.384 C 207.846 206.127,207.770 205.927,207.583 205.679 C 207.439 205.489,207.319 205.234,207.317 205.112 C 207.310 204.808,207.032 204.222,206.666 203.743 C 206.497 203.522,206.233 203.036,206.079 202.662 C 205.925 202.289,205.729 201.904,205.644 201.807 C 205.559 201.710,205.379 201.440,205.245 201.207 L 205.002 200.784 205.067 198.387 L 205.132 195.989 205.426 195.664 C 205.587 195.485,205.777 195.227,205.848 195.091 C 205.918 194.955,206.119 194.631,206.293 194.372 C 206.468 194.113,206.611 193.844,206.611 193.774 C 206.611 193.646,207.117 192.588,207.217 192.508 C 207.793 192.044,208.474 188.509,208.451 186.103 L 208.435 184.415 209.352 183.522 C 211.676 181.259,214.085 180.209,217.188 180.107 C 219.549 180.028,221.507 180.364,222.160 180.958 C 222.441 181.214,222.685 181.331,223.262 181.485 C 224.465 181.805,225.579 182.445,226.234 183.191 C 226.938 183.993,229.816 184.522,233.506 184.527 C 236.428 184.531,236.181 184.387,235.446 185.665 C 234.142 187.930,232.725 189.083,229.969 190.120 C 227.170 191.173,223.289 191.091,221.302 189.937 L 220.612 189.536 220.901 189.478 C 221.060 189.446,221.272 189.348,221.371 189.260 C 221.470 189.173,221.903 188.945,222.333 188.755 C 223.356 188.302,223.442 188.143,223.445 186.681 L 223.446 185.658 223.150 185.270 C 222.856 184.885,221.395 183.508,220.981 183.225 C 220.794 183.097,220.507 183.076,218.959 183.076 C 216.916 183.076,216.616 183.150,216.150 183.763 L 215.910 184.079 215.939 185.931 C 215.965 187.570,215.989 187.823,216.144 188.127 C 216.240 188.316,216.306 188.481,216.291 188.495 C 215.966 188.779,215.454 188.894,214.507 188.894 C 213.370 188.894,213.243 188.931,212.448 189.503 L 211.894 189.901 211.949 190.301 C 212.065 191.157,212.533 191.405,213.042 190.881 C 213.402 190.510,213.463 190.505,215.392 190.704 C 218.796 191.055,219.449 191.169,220.667 191.623 C 225.041 193.254,229.551 193.057,233.595 191.059 C 235.790 189.975,237.401 187.624,237.989 184.650 L 238.087 184.152 238.648 184.046 C 239.631 183.861,240.326 182.459,239.435 182.459 C 239.271 182.459,239.136 182.421,239.136 182.373 C 239.136 181.970,236.615 181.802,235.522 182.132 C 233.421 182.766,230.385 182.701,228.691 181.984 C 227.577 181.513,227.682 181.573,227.006 181.023 C 225.776 180.021,223.547 178.755,222.253 178.324 C 218.478 177.066,212.658 177.831,210.137 179.918 C 209.918 180.098,209.582 180.298,209.389 180.361 C 209.132 180.445,208.955 180.594,208.728 180.917 C 208.557 181.159,208.242 181.528,208.026 181.737 L 207.634 182.116 207.514 181.886 C 207.448 181.760,207.019 180.083,206.560 178.159 L 205.727 174.661 205.926 174.507 C 208.083 172.837,212.624 170.313,213.725 170.172 C 213.978 170.140,214.395 170.016,214.651 169.897 C 215.101 169.687,215.181 169.680,217.066 169.679 C 219.343 169.678,219.636 169.636,222.724 168.873 C 224.620 168.405,225.276 168.288,227.810 167.966 C 231.019 167.559,231.070 167.537,229.647 167.166 C 228.763 166.936,223.676 166.988,223.282 167.231 M169.886 167.220 C 167.992 167.328,166.163 167.752,164.786 168.400 C 164.447 168.559,163.991 168.738,163.773 168.797 C 163.163 168.961,161.551 170.006,161.135 170.508 C 160.908 170.781,161.183 172.038,161.418 171.803 C 161.472 171.750,161.597 171.705,161.697 171.705 C 162.007 171.703,162.764 171.206,163.354 170.616 C 163.665 170.305,164.055 169.982,164.221 169.898 C 164.386 169.814,164.581 169.694,164.654 169.632 C 165.842 168.617,175.038 168.839,177.402 169.940 C 178.173 170.299,179.639 171.636,179.639 171.981 C 179.639 172.964,180.629 173.726,182.901 174.489 L 184.707 175.096 185.985 175.090 C 187.147 175.085,188.752 174.962,188.843 174.871 C 188.945 174.769,189.182 174.009,189.182 173.783 C 189.182 173.244,188.821 173.083,187.751 173.147 C 185.808 173.263,181.705 171.534,181.088 170.339 C 180.894 169.964,179.812 169.053,179.110 168.675 C 178.892 168.557,178.594 168.333,178.449 168.176 C 178.303 168.019,177.816 167.719,177.363 167.507 L 176.541 167.122 173.837 167.135 C 172.350 167.142,170.572 167.180,169.886 167.220 M168.936 177.890 C 168.552 177.934,168.116 178.024,167.966 178.090 C 167.817 178.157,167.437 178.257,167.122 178.314 C 165.394 178.623,163.186 179.530,160.997 180.827 C 160.464 181.143,159.940 181.401,159.832 181.401 C 159.724 181.401,159.599 181.471,159.553 181.556 C 159.461 181.726,158.727 182.116,158.175 182.288 C 157.981 182.348,157.704 182.488,157.558 182.598 C 156.826 183.154,154.996 183.344,153.768 182.991 C 153.376 182.878,151.697 182.790,151.697 182.883 C 151.697 183.023,153.135 183.949,153.721 184.185 C 154.989 184.697,157.019 184.993,157.603 184.751 C 158.025 184.576,160.997 186.562,161.308 187.227 C 161.458 187.546,161.686 187.805,162.137 188.167 C 162.479 188.442,163.008 188.878,163.313 189.135 C 168.720 193.696,175.277 194.611,180.983 191.600 C 181.931 191.100,181.909 190.719,180.917 190.483 C 180.674 190.426,180.238 190.323,179.947 190.255 C 178.914 190.014,177.208 190.149,175.522 190.606 C 173.055 191.274,171.018 191.268,169.061 190.587 L 167.783 190.141 168.758 190.135 C 169.824 190.127,170.311 189.939,170.703 189.383 C 170.794 189.254,170.997 188.988,171.155 188.792 C 171.313 188.596,171.463 188.330,171.489 188.202 C 171.515 188.073,171.617 187.816,171.716 187.631 C 171.866 187.348,171.895 187.130,171.895 186.289 C 171.895 185.045,171.871 184.970,171.407 184.765 C 171.149 184.650,170.996 184.512,170.917 184.321 C 170.835 184.124,170.652 183.964,170.280 183.766 C 169.993 183.613,169.682 183.381,169.589 183.251 C 169.252 182.777,167.358 182.467,166.734 182.784 C 165.930 183.192,165.156 184.103,165.001 184.826 C 164.948 185.076,164.869 185.280,164.826 185.280 C 164.632 185.280,164.519 185.742,164.478 186.710 L 164.434 187.744 163.319 186.754 C 162.705 186.210,162.019 185.559,161.794 185.307 C 161.569 185.055,161.238 184.759,161.058 184.650 C 160.879 184.541,160.543 184.295,160.313 184.103 L 159.894 183.754 160.188 183.554 C 160.350 183.444,160.729 183.254,161.030 183.131 C 161.331 183.009,161.772 182.734,162.010 182.519 C 162.249 182.305,162.673 182.039,162.954 181.928 C 163.234 181.817,163.746 181.597,164.091 181.438 C 167.506 179.870,172.638 180.010,176.257 181.771 C 178.271 182.752,180.527 184.025,181.089 184.499 C 181.891 185.175,182.477 185.226,182.777 184.644 C 182.986 184.242,181.820 182.768,180.213 181.401 C 179.785 181.038,179.332 180.646,179.206 180.532 C 176.936 178.459,172.946 177.433,168.936 177.890 M186.080 180.269 C 184.379 180.354,182.856 180.757,183.627 180.919 C 184.425 181.085,189.298 183.189,189.643 183.515 C 190.421 184.252,191.069 184.260,191.442 183.538 C 191.834 182.780,190.332 181.157,188.687 180.559 C 187.852 180.257,187.382 180.204,186.080 180.269 M190.965 222.361 C 189.499 222.552,187.990 222.986,186.734 223.578 C 185.150 224.326,183.507 224.747,181.861 224.829 L 180.779 224.883 180.528 225.200 C 179.939 225.946,180.063 226.341,181.012 226.741 C 184.747 228.317,187.233 228.153,190.268 226.131 C 191.724 225.162,193.793 224.239,194.507 224.240 C 195.755 224.243,196.829 224.582,198.546 225.514 L 199.956 226.279 201.425 226.246 C 202.273 226.226,202.945 226.173,203.012 226.119 C 203.172 225.991,204.757 225.297,204.888 225.297 C 204.946 225.297,205.328 225.113,205.736 224.887 C 207.192 224.082,207.299 224.042,208.116 223.996 C 209.049 223.943,209.652 224.172,210.357 224.847 C 212.622 227.016,216.162 228.135,217.629 227.144 C 217.750 227.062,218.016 226.911,218.220 226.807 C 218.960 226.433,218.901 225.047,218.136 224.794 C 217.791 224.680,216.540 224.772,216.085 224.945 C 214.962 225.372,212.698 224.722,211.447 223.612 L 210.841 223.075 209.894 222.904 C 207.262 222.431,202.796 222.647,201.269 223.322 C 200.492 223.665,199.389 223.629,198.267 223.223 C 196.120 222.446,193.079 222.087,190.965 222.361 M204.040 235.042 C 203.927 235.100,203.527 235.214,203.151 235.296 C 202.775 235.379,202.468 235.476,202.468 235.513 C 202.468 235.551,202.121 235.730,201.697 235.913 C 201.273 236.096,200.846 236.319,200.749 236.407 C 200.577 236.565,200.546 236.556,199.405 235.999 C 198.010 235.317,197.566 235.219,196.210 235.291 C 194.248 235.395,194.013 235.528,194.009 236.536 L 194.006 237.241 194.455 237.493 C 194.739 237.652,194.873 237.776,194.820 237.829 C 194.713 237.935,195.232 238.945,195.664 239.472 C 195.913 239.776,196.195 239.961,196.998 240.346 C 197.558 240.615,198.339 241.028,198.733 241.264 C 199.719 241.856,201.079 242.484,202.336 242.927 C 202.918 243.132,203.790 243.439,204.275 243.609 C 204.760 243.779,205.219 243.972,205.296 244.039 C 205.697 244.389,206.464 244.091,206.268 243.661 C 206.205 243.524,206.186 243.280,206.219 243.060 L 206.274 242.688 207.338 242.631 C 209.158 242.533,208.951 242.474,209.653 243.297 C 209.992 243.694,210.472 244.249,210.721 244.530 C 211.182 245.051,211.371 245.512,211.371 246.121 C 211.371 246.284,211.417 246.463,211.474 246.520 C 211.957 247.003,211.581 250.044,210.966 250.633 C 210.382 251.193,210.453 252.257,211.084 252.415 C 211.899 252.620,214.079 250.444,214.382 249.126 C 214.576 248.278,214.521 245.615,214.303 245.317 C 213.938 244.820,213.062 243.129,213.007 242.817 C 212.975 242.634,212.878 242.450,212.790 242.402 C 212.701 242.355,211.985 241.124,211.197 239.667 C 209.515 236.556,209.077 235.990,207.868 235.366 L 207.184 235.013 205.714 234.975 C 204.684 234.948,204.184 234.968,204.040 235.042 " stroke="none" fill="#8c73431a" fill-rule="evenodd"></path></g></svg>